<?xml version="1.0" encoding="UTF-8"?>
<svg width="10px" height="16px" viewBox="0 0 10 16" version="1.1" xmlns="http://www.w3.org/2000/svg" xmlns:xlink="http://www.w3.org/1999/xlink">
    <!-- Generator: Sketch 52.2 (67145) - http://www.bohemiancoding.com/sketch -->
    <title>密码</title>
    <desc>Created with Sketch.</desc>
    <g id="Page-1" stroke="none" stroke-width="1" fill="none" fill-rule="evenodd">
        <g id="登录" transform="translate(-854.000000, -420.000000)" fill-rule="nonzero">
            <g id="分组-2" transform="translate(127.000000, 140.000000)">
                <g id="分组" transform="translate(711.000000, 204.000000)">
                    <g id="密码" transform="translate(16.000000, 76.000000)">
                        <path d="M4.99999098,16 C2.23877017,16 0,13.7617314 0,11.0000011 C0,9.87695231 0.374998424,8.8437568 1.0000018,8.00928116 L1.00000181,4.00001353 C1.00000181,1.79102255 2.79102155,0 4.99999098,0 C7.20897846,0 8.99998015,1.79102257 8.99998015,4.00001353 L8.99998015,8.00929921 C9.62498354,8.84377484 10,9.87697037 10,11.0000192 C10,13.7617314 7.76122985,16 4.99999098,16 Z M7.99999641,4.00001353 C7.99999641,2.3432748 6.65672709,1.00000338 4.999991,1.00000338 C3.34325491,1.00000338 1.99998559,2.34325677 1.99998559,4.00001353 L1.99998559,7.00684249 C2.83640814,6.3774546 3.87302948,6.00002029 4.999991,6.00002029 C6.12743959,6.00002029 7.16357388,6.3774546 7.99999641,7.00684249 L7.99999641,4.00001353 Z" id="Shape" fill="#999999"></path>
                        <path d="M8.11963222,8.50001972 L7.99999639,8.50001972 L7.99999639,8.36036018 C7.26708265,7.52808534 6.1962951,7.00000562 4.99999098,7.00000562 C2.7910035,7.00000562 1.00000181,8.79102818 1.00000181,11.0000191 C1.00000181,13.2090101 2.79102155,15.0000146 4.99999098,15.0000146 C7.20897846,15.0000146 8.99998015,13.2090101 8.99998015,11.0000191 C8.9999982,10.0537365 8.66943028,9.18505857 8.11963222,8.50001972 Z" id="Path" fill="#999999"></path>
                        <path d="M4.99999098,13.0000259 C4.72363079,13.0000259 4.4999991,12.7763939 4.4999991,12.5000152 L4.4999991,10.5000085 C4.4999991,10.2236478 4.72363079,10.0000158 4.99999098,10.0000158 C5.27635118,10.0000158 5.5000009,10.2236298 5.5000009,10.5000085 L5.5000009,12.5000152 C5.50000092,12.7763759 5.27636923,13.0000259 4.99999098,13.0000259 Z" id="Path" fill="#FFFFFF"></path>
                    </g>
                </g>
            </g>
        </g>
    </g>
</svg>