<?xml version="1.0" encoding="UTF-8"?>
<svg width="353px" height="74px" viewBox="0 0 353 74" version="1.1" xmlns="http://www.w3.org/2000/svg" xmlns:xlink="http://www.w3.org/1999/xlink">
    <!-- Generator: Sketch 51 (57462) - http://www.bohemiancoding.com/sketch -->
    <title>Group 3</title>
    <desc>Created with Sketch.</desc>
    <defs></defs>
    <g id="Page-1" stroke="none" stroke-width="1" fill="none" fill-rule="evenodd">
        <g id="首页-copy" transform="translate(-544.000000, -296.000000)">
            <g id="Group-3" transform="translate(544.000000, 296.000000)">
                <text id="——数字货币追踪系统" font-family="PingFangSC-Regular, PingFang SC" font-size="20" font-weight="normal" line-spacing="24" fill="#FFFFFF">
                    <tspan x="151" y="73">——数字货币追踪系统</tspan>
                </text>
                <g id="chaindigg、logo横版">
                    <path d="M22.9739067,2.01470985 C23.7664363,2.01584531 24.5583889,2.05757777 25.3466589,2.13974356 L25.4127727,9.44318328 C17.7917052,8.23805757 10.4214153,12.7406189 8.00585058,20.0771931 C5.59028589,27.4137673 8.84141808,35.4219476 15.6842738,38.9906652 C22.5271295,42.5593827 30.9448224,40.6367816 35.5649198,34.4499255 L42,37.8846751 C35.8690809,46.9594652 24.1957522,50.44448 14.1021012,46.2134555 C4.00845007,41.982431 -1.70305241,31.2100981 0.452273972,20.4688317 C2.60760035,9.72756531 12.0313359,1.99964491 22.9739067,2 L22.9739067,2.01470985 Z" id="Shape" fill="#00A0E9"></path>
                    <path d="M23.015,13.0909671 C24.5571437,13.0872759 26.0853652,13.3820728 27.515,13.9590259 L27.62,0.00273596068 C29.75,-0.0945464893 35,2.43479721 35,2.43479721 L35,25.0267754 C35,31.6394047 29.627417,37 23,37 C16.372583,37 11,31.6394047 11,25.0267754 C11,18.414146 16.372583,13.0535508 23,13.0535508 L23.015,13.0909671 Z M23.2025,20.6864815 C21.4339888,20.6864815 19.8396167,21.7494299 19.1628367,23.3796754 C18.4860568,25.009921 18.8601494,26.8864149 20.1106756,28.1341509 C21.3612018,29.3818868 23.241892,29.7551446 24.8757833,29.0798748 C26.5096746,28.404605 27.575,26.8137903 27.575,25.0492252 C27.5830347,23.8830745 27.1228142,22.7622545 26.2970624,21.9369392 C25.4713107,21.111624 24.3487705,20.6505199 23.18,20.6565484 L23.2025,20.6864815 Z" id="Shape" fill="#00A0E9"></path>
                    <path d="M37,6 L37.0564972,14 L42,11.1781305 C40.6572214,9.16689108 38.9636551,7.41298963 37,6 Z" id="Shape" fill="#00A0E9"></path>
                    <path d="M74.4995392,27.2604167 L82,27.2604167 L82,29.6934524 C82,32.2827381 81.2743093,34.1478175 79.8229279,35.2886905 C78.3715464,36.4295635 76.0304483,37 72.7996335,37 L60.6169764,37 C56.9040247,37 54.2050517,36.3377976 52.5200575,35.0133929 C50.8350633,33.6889881 49.9950514,31.4345238 50.0000219,28.25 L50.0000219,20.9806548 C50.0000219,17.6324405 50.8201518,15.3010913 52.4604117,13.9866071 C54.1006715,12.672123 56.8344379,12.0099206 60.6617108,12 L69.6831398,12 C74.3106608,12 77.4718888,12.530754 79.1668239,13.5922619 C80.8617591,14.6537698 81.7067414,16.7867063 81.7017709,19.9910714 L81.7017709,21.2113095 L74.2385887,21.2113095 L74.2385887,20.4672619 C74.2767763,19.7936199 73.9493381,19.1514488 73.3811802,18.7857143 C72.5321707,18.3455073 71.5763258,18.1521512 70.6225614,18.2276786 L62.5629211,18.2276786 C60.7785172,18.2276786 59.5358961,18.5823413 58.8350578,19.2916667 C58.1342195,20.0009921 57.7788299,21.3080357 57.7688889,23.2127976 L57.7688889,25.578869 C57.7688889,27.6622024 58.077059,29.0386905 58.693399,29.7083333 C59.3097391,30.3779762 60.5250225,30.7078373 62.3392493,30.6979167 L70.3541552,30.6979167 C72.0987952,30.6979167 73.2246099,30.4821429 73.7166879,30.0580357 C74.2087658,29.6339286 74.4622605,28.6741071 74.5442735,27.2306548 L74.4995392,27.2604167 Z" id="Shape" fill="#FFFFFF" fill-rule="nonzero"></path>
                    <polygon id="Shape" fill="#FFFFFF" fill-rule="nonzero" points="90 12 97.3270211 12 97.3270211 20.5349544 112.672979 20.5349544 112.672979 12 120 12 120 36 112.672979 36 112.672979 26.8668693 97.3270211 26.8668693 97.3270211 36 90 36"></polygon>
                    <path d="M126,36 L139.22449,12 L148.77551,12 L162,36 L153.91102,36 L151.56,31.7471125 L136.513469,31.7471125 L134.191837,36 L126,36 Z M139.334694,26.5677812 L148.760816,26.5677812 L144.022041,17.7337386 L139.334694,26.5677812 Z" id="Shape" fill="#FFFFFF" fill-rule="nonzero"></path>
                    <polygon id="Shape" fill="#FFFFFF" fill-rule="nonzero" points="168 12 175 12 175 36 168 36"></polygon>
                    <polygon id="Shape" fill="#FFFFFF" fill-rule="nonzero" points="185 12 196.464477 12 210.560992 29.5075988 210.560992 29.5075988 210.560992 12 218 12 218 36 206.513405 36 192.41689 18.4924012 192.41689 18.4924012 192.41689 36 185 36"></polygon>
                    <path d="M226,35.999589 L226,12 L248.128124,12 C251.903377,12 254.491292,12.6613869 255.891867,13.9841606 C257.292443,15.3069343 257.995154,17.4467152 258,20.4035035 L258,27.5669067 C258,30.4847898 257.292443,32.6245708 255.877328,33.9862496 C254.462214,35.3479285 251.961533,36.0190416 248.375284,35.999589 L226,35.999589 Z M233.31304,29.857445 L246.28169,29.857445 C247.968196,29.857445 249.119188,29.5389094 249.734666,28.9018382 C250.350144,28.2647671 250.667575,27.1632662 250.68696,25.5973355 L250.68696,22.3220117 C250.68696,20.6101869 250.347721,19.4551915 249.669241,18.8570254 C248.993185,18.2588594 247.779191,17.9524817 246.03453,17.9524817 L233.31304,17.9524817 L233.31304,29.857445 Z" id="Shape" fill="#FFFFFF" fill-rule="nonzero"></path>
                    <polygon id="Shape" fill="#FFFFFF" fill-rule="nonzero" points="267 12 274 12 274 36 267 36"></polygon>
                    <path d="M313.738989,20.6953335 L306.356099,20.6953335 C306.456172,19.8909631 306.181388,19.0851807 305.610353,18.50849 C305.113189,18.0919483 304.168577,17.8836775 302.776517,17.8836775 L294.573306,17.8836775 C292.515046,17.8836775 291.202533,18.2555897 290.628308,18.999414 C290.054083,19.7432384 289.770699,21.0895604 289.770699,23.0830097 L289.770699,25.6492037 C289.770699,27.9748945 290.083913,29.4625432 290.71034,30.1121497 C291.344224,30.7741534 292.626908,31.1088744 294.550934,31.1311891 L302.545335,31.1311891 C303.62113,31.2222785 304.700996,31.0109847 305.662555,30.5212531 C306.263871,30.0629648 306.59215,29.3325383 306.535079,28.5798716 L306.535079,27.888115 L297.116301,27.888115 L297.116301,22.8003564 L314,22.8003564 L314,29.8071818 C314,32.613879 313.284083,34.5155899 311.85225,35.5123145 C310.420417,36.5090391 307.512006,37.004922 303.127017,36.9999632 L292.619451,36.9999632 C288.905634,36.9999632 286.206032,36.3379595 284.520645,35.0139522 C282.835258,33.6899448 281.99505,31.4361571 282.000022,28.2525889 L282.000022,20.985425 C282.000022,17.7175567 282.815371,15.4017836 284.44607,14.0381057 C286.076769,12.6744277 288.811172,11.9950681 292.649281,12.000027 L303.954796,12.000027 C307.494606,12.000027 310.012743,12.5529364 311.509207,13.6587552 C313.005671,14.7645741 313.751418,16.7704204 313.746446,19.6762942 L313.746446,20.6804571 L313.738989,20.6953335 Z" id="Shape" fill="#FFFFFF" fill-rule="nonzero"></path>
                    <path d="M352.761194,20.6953335 L345.37314,20.6953335 C345.473282,19.8909631 345.198306,19.0851807 344.626871,18.50849 C344.129359,18.0919483 343.184086,17.8836775 341.791052,17.8836775 L333.582103,17.8836775 C331.522403,17.8836775 330.208971,18.2555897 329.634344,18.999414 C329.059718,19.7432384 328.776136,21.0895604 328.776136,23.0830097 L328.776136,25.6492037 C328.776136,27.9748945 329.089569,29.4625432 329.716434,30.1121497 C330.350762,30.7741534 331.634343,31.1088744 333.559715,31.1311891 L341.559709,31.1311891 C342.636256,31.2222785 343.716879,31.0109847 344.67911,30.5212531 C345.280847,30.0629648 345.609355,29.3325383 345.552244,28.5798716 L345.552244,27.888115 L336.13434,27.888115 L336.13434,22.8003564 L353,22.8003564 L353,29.8071818 C353,32.613879 352.283583,34.5155899 350.850748,35.5123145 C349.417913,36.5090391 346.507467,37.004922 342.11941,36.9999632 L331.62688,36.9999632 C327.910465,36.9999632 325.208974,36.3379595 323.522408,35.0139522 C321.835842,33.6899448 320.995047,31.4361571 321.000022,28.2525889 L321.000022,20.985425 C321.000022,17.7175567 321.815942,15.4017836 323.447781,14.0381057 C325.079621,12.6744277 327.815938,11.9950681 331.656731,12.000027 L342.992544,12.000027 C346.53483,12.000027 349.054729,12.5529364 350.55224,13.6587552 C352.049752,14.7645741 352.79602,16.7704204 352.791045,19.6762942 L352.791045,20.6804571 L352.761194,20.6953335 Z" id="Shape" fill="#FFFFFF" fill-rule="nonzero"></path>
                </g>
            </g>
        </g>
    </g>
</svg>