<?xml version="1.0" encoding="UTF-8"?>
<svg width="206px" height="28px" viewBox="0 0 206 28" version="1.1" xmlns="http://www.w3.org/2000/svg" xmlns:xlink="http://www.w3.org/1999/xlink">
    <!-- Generator: Sketch 52.2 (67145) - http://www.bohemiancoding.com/sketch -->
    <title>chaindigg、logo横版</title>
    <desc>Created with Sketch.</desc>
    <g id="Page-1" stroke="none" stroke-width="1" fill="none" fill-rule="evenodd">
        <g id="智能分析" transform="translate(-48.000000, -18.000000)">
            <g id="Group-3" transform="translate(0.000000, 18.000000)">
                <g id="chaindigg、logo横版" transform="translate(48.000000, 0.000000)">
                    <path d="M13.6749445,1.00863404 C14.1466883,1.00930051 14.6180886,1.03379565 15.087297,1.08202339 L15.1266504,5.36882497 C10.5903007,4.66146857 6.20322338,7.30427632 4.76538725,11.6105264 C3.32755112,15.9167764 5.26274886,20.6172301 9.33587726,22.7119122 C13.4090057,24.8065942 18.4195371,23.678111 21.1695951,20.0466954 L25,22.0627441 C21.3506434,27.3892513 14.4022335,29.4348035 8.39410783,26.951376 C2.38598218,24.4679486 -1.01372167,18.1450576 0.269210698,11.8404012 C1.55214307,5.53574486 7.16150944,0.999791579 13.6749445,1 L13.6749445,1.00863404 Z" id="Shape" fill="#00A0E9"></path>
                    <path d="M13.00875,7.78381828 C13.9083338,7.78162353 14.7997964,7.95690817 15.63375,8.29996134 L15.695,0.00162678743 C16.9375,-0.0562168315 20,1.44771726 20,1.44771726 L20,14.8807854 C20,18.812619 16.8659932,22 13,22 C9.13400675,22 6,18.812619 6,14.8807854 C6,10.9489517 9.13400675,7.76157074 13,7.76157074 L13.00875,7.78381828 Z M13.118125,12.3000701 C12.0864935,12.3000701 11.1564431,12.9320934 10.7616548,13.9014286 C10.3668665,14.8707639 10.5850871,15.986517 11.3145608,16.728414 C12.0440344,17.4703111 13.1411037,17.6922482 14.0942069,17.2907364 C15.0473102,16.8892246 15.66875,15.9433348 15.66875,14.8941339 C15.6734369,14.200747 15.4049749,13.5343135 14.9232864,13.0435855 C14.4415979,12.5528575 13.7867828,12.2786875 13.105,12.282272 L13.118125,12.3000701 Z" id="Shape" fill="#00A0E9"></path>
                    <path d="M22,4 L22.0338983,9 L25,7.23633157 C24.1943328,5.97930692 23.178193,4.88311852 22,4 Z" id="Shape" fill="#00A0E9"></path>
                    <path d="M43.5466014,16.15625 L48,16.15625 L48,17.6160714 C48,19.1696429 47.5691211,20.2886905 46.7073634,20.9732143 C45.8456057,21.6577381 44.4555787,22 42.5372824,22 L35.3038298,22 C33.0992646,22 31.4967494,21.6026786 30.4962841,20.8080357 C29.4958188,20.0133929 28.9970618,18.6607143 29.000013,16.75 L29.000013,12.3883929 C29.000013,10.3794643 29.4869652,8.98065476 30.4608694,8.19196429 C31.4347737,7.40327381 33.0579475,7.00595238 35.3303908,7 L40.6868643,7 C43.4344548,7 45.311434,7.31845238 46.3178017,7.95535714 C47.3241695,8.5922619 47.8258777,9.87202381 47.8229265,11.7946429 L47.8229265,12.5267857 L43.3916621,12.5267857 L43.3916621,12.0803571 C43.4143359,11.6761719 43.2199195,11.2908693 42.8825757,11.0714286 C42.3784764,10.8073044 41.8109435,10.6912907 41.2446458,10.7366071 L36.4592344,10.7366071 C35.3997446,10.7366071 34.6619383,10.9494048 34.2458156,11.375 C33.8296928,11.8005952 33.6186802,12.5848214 33.6127778,13.7276786 L33.6127778,15.1473214 C33.6127778,16.3973214 33.7957538,17.2232143 34.1617057,17.625 C34.5276576,18.0267857 35.2492321,18.2247024 36.3264292,18.21875 L41.0852797,18.21875 C42.1211597,18.21875 42.7896121,18.0892857 43.0817834,17.8348214 C43.3739547,17.5803571 43.5244672,17.0044643 43.5731624,16.1383929 L43.5466014,16.15625 Z" id="Shape" fill="#FFFFFF" fill-rule="nonzero"></path>
                    <polygon id="Shape" fill="#FFFFFF" fill-rule="nonzero" points="53 7 57.3962127 7 57.3962127 11.9787234 66.6037873 11.9787234 66.6037873 7 71 7 71 21 66.6037873 21 66.6037873 15.6723404 57.3962127 15.6723404 57.3962127 21 53 21"></polygon>
                    <path d="M74,21 L81.7142857,7 L87.2857143,7 L95,21 L90.2814286,21 L88.91,18.5191489 L80.1328571,18.5191489 L78.7785714,21 L74,21 Z M81.7785714,15.4978723 L87.2771429,15.4978723 L84.5128571,10.3446809 L81.7785714,15.4978723 Z" id="Shape" fill="#FFFFFF" fill-rule="nonzero"></path>
                    <polygon id="Shape" fill="#FFFFFF" fill-rule="nonzero" points="98 7 102 7 102 21 98 21"></polygon>
                    <polygon id="Shape" fill="#FFFFFF" fill-rule="nonzero" points="108 7 114.60076 7 122.716935 17.212766 122.716935 17.212766 122.716935 7 127 7 127 21 120.386506 21 112.270331 10.787234 112.270331 10.787234 112.270331 21 108 21"></polygon>
                    <path d="M132,20.9997603 L132,7 L145.138573,7 C147.38013,7 148.916705,7.385809 149.748296,8.15742699 C150.579888,8.92904498 150.997123,10.1772506 151,11.9020437 L151,16.0806956 C151,17.7827941 150.579888,19.0309997 149.739664,19.8253123 C148.89944,20.6196249 147.41466,21.0111076 145.285325,20.9997603 L132,20.9997603 Z M136.342117,17.4168429 L144.042254,17.4168429 C145.043617,17.4168429 145.727018,17.2310305 146.092458,16.8594056 C146.457898,16.4877808 146.646373,15.8452386 146.657883,14.9317791 L146.657883,13.0211735 C146.657883,12.022609 146.456459,11.3488617 146.053612,10.9999315 C145.652204,10.6510013 144.931395,10.472281 143.895502,10.472281 L136.342117,10.472281 L136.342117,17.4168429 Z" id="Shape" fill="#FFFFFF" fill-rule="nonzero"></path>
                    <polygon id="Shape" fill="#FFFFFF" fill-rule="nonzero" points="156 7 160 7 160 21 156 21"></polygon>
                    <path d="M183.845025,12.2172001 L179.461434,12.2172001 C179.520852,11.7345779 179.357699,11.2511084 179.018647,10.905094 C178.723456,10.655169 178.162592,10.5302065 177.336057,10.5302065 L172.465401,10.5302065 C171.243309,10.5302065 170.464004,10.7533538 170.123058,11.1996484 C169.782112,11.645943 169.613853,12.4537363 169.613853,13.6498058 L169.613853,15.1895222 C169.613853,16.5849367 169.799823,17.4775259 170.171764,17.8672898 C170.548133,18.264492 171.309727,18.4653246 172.452117,18.4787135 L177.198793,18.4787135 C177.837546,18.5333671 178.478717,18.4065908 179.049642,18.1127519 C179.406673,17.8377789 179.601589,17.399523 179.567703,16.947923 L179.567703,16.532869 L173.975304,16.532869 L173.975304,13.4802139 L184,13.4802139 L184,17.6843091 C184,19.3683274 183.574925,20.5093539 182.724774,21.1073887 C181.874623,21.7054235 180.147754,22.0029532 177.544167,21.9999779 L171.305299,21.9999779 C169.10022,21.9999779 167.497331,21.6027757 166.496633,20.8083713 C165.495934,20.0139669 164.997061,18.6616942 165.000013,16.7515533 L165.000013,12.391255 C165.000013,10.430534 165.484127,9.04107017 166.452354,8.22286339 C167.420582,7.40465661 169.044134,6.99704087 171.32301,7.00001617 L178.03566,7.00001617 C180.137422,7.00001617 181.632566,7.33176183 182.521092,7.99525314 C183.409617,8.65874446 183.852404,9.86225225 183.849452,11.6057765 L183.849452,12.2082742 L183.845025,12.2172001 Z" id="Shape" fill="#FFFFFF" fill-rule="nonzero"></path>
                    <path d="M205.858209,12.2172001 L201.471552,12.2172001 C201.531011,11.7345779 201.367744,11.2511084 201.028455,10.905094 C200.733057,10.655169 200.171801,10.5302065 199.344687,10.5302065 L194.470624,10.5302065 C193.247677,10.5302065 192.467826,10.7533538 192.126642,11.1996484 C191.785458,11.645943 191.617081,12.4537363 191.617081,13.6498058 L191.617081,15.1895222 C191.617081,16.5849367 191.803181,17.4775259 192.175383,17.8672898 C192.552015,18.264492 193.314141,18.4653246 194.457331,18.4787135 L199.207327,18.4787135 C199.846527,18.5333671 200.488147,18.4065908 201.059472,18.1127519 C201.416753,17.8377789 201.611805,17.399523 201.577895,16.947923 L201.577895,16.532869 L195.986014,16.532869 L195.986014,13.4802139 L206,13.4802139 L206,17.6843091 C206,19.3683274 205.574627,20.5093539 204.723881,21.1073887 C203.873136,21.7054235 202.145059,22.0029532 199.53965,21.9999779 L193.30971,21.9999779 C191.103089,21.9999779 189.499078,21.6027757 188.49768,20.8083713 C187.496281,20.0139669 186.997059,18.6616942 187.000013,16.7515533 L187.000013,12.391255 C187.000013,10.430534 187.484465,9.04107017 188.45337,8.22286339 C189.422275,7.40465661 191.046963,6.99704087 193.327434,7.00001617 L200.058073,7.00001617 C202.161305,7.00001617 203.657495,7.33176183 204.546643,7.99525314 C205.43579,8.65874446 205.878887,9.86225225 205.875933,11.6057765 L205.875933,12.2082742 L205.858209,12.2172001 Z" id="Shape" fill="#FFFFFF" fill-rule="nonzero"></path>
                </g>
            </g>
        </g>
    </g>
</svg>