<?xml version="1.0" encoding="UTF-8"?>
<svg width="24px" height="26px" viewBox="0 0 24 26" version="1.1" xmlns="http://www.w3.org/2000/svg" xmlns:xlink="http://www.w3.org/1999/xlink">
    <!-- Generator: Sketch 51 (57462) - http://www.bohemiancoding.com/sketch -->
    <title>搜索</title>
    <desc>Created with Sketch.</desc>
    <defs></defs>
    <g id="Page-1" stroke="none" stroke-width="1" fill="none" fill-rule="evenodd">
        <g id="首页-copy" transform="translate(-972.000000, -431.000000)" fill="#FFFFFF" fill-rule="nonzero">
            <g id="搜索" transform="translate(972.000000, 431.000000)">
                <path d="M12,23.8042159 C5.4,23.8042159 0,18.4482673 0,11.902108 C0,5.35594858 5.4,0 12,0 C18.6,0 24,5.35594858 24,11.902108 C24,18.4482673 18.6,23.8042159 12,23.8042159 Z M12,21.8205313 C17.5,21.8205313 22,17.3572408 22,11.902108 C22,6.44697513 17.5,1.98368467 12,1.98368467 C6.49999998,1.98368467 2.00000001,6.44697515 2.00000001,11.902108 C2.00000001,17.3572408 6.50000001,21.8205313 12,21.8205313 Z M19.4,23.407479 C19,23.0107421 19.1,22.3164524 19.5,22.0188997 C19.9,21.721347 20.6,21.721347 20.9,22.118084 L22.8,24.3993213 C23.2,24.7960582 23.1,25.4903479 22.7,25.7879006 C22.3,26.0854533 21.6,26.0854533 21.3,25.6887164 L19.4,23.407479 Z" id="Shape"></path>
            </g>
        </g>
    </g>
</svg>