<?xml version="1.0" encoding="UTF-8"?>
<svg width="13px" height="17px" viewBox="0 0 13 17" version="1.1" xmlns="http://www.w3.org/2000/svg" xmlns:xlink="http://www.w3.org/1999/xlink">
    <!-- Generator: Sketch 51 (57462) - http://www.bohemiancoding.com/sketch -->
    <title>用户 (1)</title>
    <desc>Created with Sketch.</desc>
    <defs></defs>
    <g id="Page-1" stroke="none" stroke-width="1" fill="none" fill-rule="evenodd">
        <g id="首页-copy-6" transform="translate(-566.000000, -367.000000)" fill="#000000" fill-rule="nonzero">
            <g id="用户-(1)" transform="translate(566.000000, 367.000000)">
                <path d="M13,13.406 C13,14.164 12.7893789,14.812 12.3661866,15.354 C11.9429943,15.896 11.4320432,16.166 10.8372337,16.166 L2.16276628,16.166 C1.5660066,16.166 1.0570057,15.894 0.633813381,15.354 C0.210621062,14.812 0,14.162 0,13.406 C0,12.816 0.0273027303,12.258 0.0858085809,11.734 C0.144314431,11.21 0.249624962,10.682 0.405640564,10.15 C0.561656166,9.62 0.760576058,9.164 1.00045005,8.786 C1.24032403,8.408 1.56015602,8.098 1.9560456,7.86 C2.35193519,7.622 2.80828083,7.5 3.32313231,7.5 C4.21047105,8.39 5.26942694,8.834 6.5019502,8.834 C7.73447345,8.834 8.79342934,8.39 9.68076808,7.5 C10.1956196,7.5 10.650015,7.62 11.0478548,7.86 C11.4437444,8.098 11.7616262,8.408 12.0034503,8.786 C12.2433243,9.166 12.4422442,9.618 12.5982598,10.15 C12.7542754,10.68 12.8615362,11.208 12.9180918,11.734 C12.9726973,12.258 13,12.816 13,13.406 Z M9.25757576,1.172 C10.020102,1.954 10.40039,2.896 10.40039,4 C10.40039,5.104 10.020102,6.046 9.25757576,6.828 C8.4950495,7.61 7.57650765,8 6.5,8 C5.42349235,8 4.5049505,7.61 3.74242424,6.828 C2.97989799,6.046 2.59960996,5.104 2.59960996,4 C2.59960996,2.896 2.97989799,1.954 3.74242424,1.172 C4.5049505,0.39 5.42349235,8.8817842e-16 6.5,8.8817842e-16 C7.57650765,8.8817842e-16 8.4950495,0.39 9.25757576,1.172 Z" id="Shape"></path>
            </g>
        </g>
    </g>
</svg>